{
	"asset":{
		"generator":"Khronos glTF Blender I/O v4.4.55",
		"version":"2.0"
	},
	"scene":0,
	"scenes":[
		{
			"name":"Scene",
			"nodes":[
				0
			]
		}
	],
	"nodes":[
		{
			"mesh":0,
			"name":"Mariposa_01",
			"rotation":[
				0.7071068286895752,
				0,
				0,
				0.7071068286895752
			],
			"scale":[
				0.009999999776482582,
				0.009999999776482582,
				0.009999999776482582
			],
			"translation":[
				0,
				3.2797679901123047,
				-2.813755989074707
			]
		}
	],
	"materials":[
		{
			"doubleSided":true,
			"name":"lambert1",
			"pbrMetallicRoughness":{
				"baseColorFactor":[
					0.5,
					0.5,
					0.5,
					1
				],
				"metallicFactor":0,
				"roughnessFactor":0.5527864098548889
			}
		}
	],
	"meshes":[
		{
			"name":"Mesh",
			"primitives":[
				{
					"attributes":{
						"POSITION":0,
						"NORMAL":1,
						"TEXCOORD_0":2
					},
					"indices":3,
					"material":0
				}
			]
		}
	],
	"accessors":[
		{
			"bufferView":0,
			"componentType":5126,
			"count":690,
			"max":[
				373.3028564453125,
				18.35783576965332,
				319.48101806640625
			],
			"min":[
				-373.3028564453125,
				-27.8648624420166,
				-161.63827514648438
			],
			"type":"VEC3"
		},
		{
			"bufferView":1,
			"componentType":5126,
			"count":690,
			"type":"VEC3"
		},
		{
			"bufferView":2,
			"componentType":5126,
			"count":690,
			"type":"VEC2"
		},
		{
			"bufferView":3,
			"componentType":5123,
			"count":3456,
			"type":"SCALAR"
		}
	],
	"bufferViews":[
		{
			"buffer":0,
			"byteLength":8280,
			"byteOffset":0,
			"target":34962
		},
		{
			"buffer":0,
			"byteLength":8280,
			"byteOffset":8280,
			"target":34962
		},
		{
			"buffer":0,
			"byteLength":5520,
			"byteOffset":16560,
			"target":34962
		},
		{
			"buffer":0,
			"byteLength":6912,
			"byteOffset":22080,
			"target":34963
		}
	],
	"buffers":[
		{
			"byteLength":28992,
			"uri":"MARIPOSA%203.bin"
		}
	]
}
